<svg xmlns="http://www.w3.org/2000/svg" xmlns:xlink="http://www.w3.org/1999/xlink" id="svg2817" width="48" height="48" version="1.0"><metadata id="metadata57"/><defs id="defs2819"><linearGradient id="linearGradient5801" x1="160" x2="180" y1="180" y2="200" gradientTransform="translate(-134.12 -161)" gradientUnits="userSpaceOnUse"><stop id="stop3683" offset="0"/><stop id="stop3685" offset="1" stop-opacity="0"/></linearGradient></defs><g id="g4460" transform="translate(0,1)"><path id="path4148-8" fill="#e74c3c" d="m6 23v18c0 1.108 0.892 2 2 2h32c1.108 0 2-0.892 2-2v-18z"/><path id="path4194-6" d="m6 23v18c0 1.108 0.892 2 2 2h32c1.108 0 2-0.892 2-2v-18z" opacity=".3"/><path id="rect4203-3" fill="#e74c3c" d="m6 23-2 16c-0.13743 1.0994 0.892 2 2 2h36c1.108 0 2.1374-0.90055 2-2l-2-16z"/><path id="rect4002-3" fill="#ec7063" d="m8 3c-1.108 0-2 0.892-2 2v18h36v-18c0-1.108-0.892-2-2-2z"/><path id="path4220-7" fill="#fff" d="m8 3c-1.108 0-2 0.892-2 2v1c0-1.108 0.892-2 2-2h32c1.108 0 2 0.892 2 2v-1c0-1.108-0.892-2-2-2z" opacity=".2"/><path id="path4081-2" fill="#e74c3c" d="m6 5c-1.108 0-2.1374 0.9006-2 2l2 16h36l2-16c0.137-1.0994-0.892-2-2-2z"/><path id="path4179" fill="#fff" d="m17.688 12.693c-2.9991 0-5.1875 2.4318-5.1875 4.6875 0 0.44168 0.0837 0.78575 0.25 1 0.16631 0.2142 0.40879 0.3125 0.78125 0.3125 0.32319 0 0.53779-0.12936 0.6875-0.34375 0.14975-0.21439 0.21875-0.52085 0.21875-0.90625 0-1.6536 1.4217-2.9375 3.0938-2.9375 1.1104 0 2.0122 0.35974 2.625 1 0.61276 0.64026 0.9375 1.5588 0.9375 2.625 0 0.82457-0.22165 1.7066-0.65625 2.4375-0.4346 0.73089-1.095 1.3223-1.9688 1.5-0.0725 0.0145-0.16822-0.007-0.3125 0s-0.31953 0.0252-0.5 0.0312c-0.36094 0.0121-0.7182 0.0312-0.8125 0.0312-0.40048 0-0.6748 0.0836-0.84375 0.21875-0.1689 0.13516-0.25 0.31951-0.25 0.625 0 0.28992 0.0744 0.4809 0.25 0.625s0.4609 0.2366 0.875 0.25c0.0943 0 0.44729 0.019 0.8125 0.0312 0.1826 0.006 0.38284 0.0242 0.53125 0.0312s0.2448-0.0113 0.3125 0c2.2873 0.37639 3.4062 2.3712 3.4062 4.25 0 1.3538-0.52462 2.4032-1.3125 3.0938-0.78788 0.69058-1.838 1.0312-2.9062 1.0312-1.6213 0-3.0106-0.88849-3.8125-2.75-0.172-0.416-0.618-0.656-0.907-0.656-0.21262 0-0.38803 0.0598-0.53125 0.21875-0.14322 0.15899-0.25 0.41577-0.25 0.75 0 0.60681 0.22354 1.2842 0.65625 1.9062 0.895 1.3018 2.658 2.4375 4.875 2.4375 3.9 0 6.1562-2.9385 6.1562-6 0-1.9964-0.94985-3.9969-3.0938-5.3438l-0.15625-0.0937 0.15625-0.15625c1.3537-1.1603 2.25-2.476 2.25-4.5312 0-2.954-2.0324-5.375-5.375-5.375zm14.438 0.71875c-0.0767 0-0.18982 0.0394-4.25 1.1875-0.67821 0.18259-0.90625 0.58771-0.90625 1 0 0.48201 0.35146 0.78125 0.8125 0.78125 0.0812 0 0.19708-0.0332 0.34375-0.0625l2.7188-0.78125 0.1875-0.0312v17.312c0 0.31741 0.10808 0.59465 0.28125 0.78125 0.17317 0.18655 0.4058 0.28125 0.71875 0.28125 0.59481 0 0.96875-0.42721 0.96875-1.0625v-17.594c0-0.38939-0.0111-0.68107-0.0312-0.90625s-0.0403-0.3931-0.0625-0.4375c-0.0885-0.22133-0.3646-0.46875-0.78125-0.46875z"/><path id="path4146-1" d="m6 6c-0.8989 0-1.7231 0.5955-1.9375 1.4062l1.9375 15.594h36l1.938-15.594c-0.215-0.8105-1.039-1.406-1.938-1.406z" opacity=".3"/><path id="path4200-8" fill="#fff" d="m6 5c-1.108 0-2.1374 0.9006-2 2l0.0625 0.4062c0.2144-0.8107 1.0386-1.4062 1.9375-1.4062h36c0.89889 0 1.7231 0.59548 1.9375 1.4062l0.062-0.4062c0.137-1.0994-0.892-2-2-2z" opacity=".4"/><path id="path4211-7" fill="#fff" d="m4.0625 38.594-0.0625 0.406c-0.13743 1.0994 0.892 2 2 2h20l-1.124-1h-18.876c-0.8989 0-1.7231-0.595-1.9375-1.406z" opacity=".2"/><path id="path4124-6" fill="url(#linearGradient5801)" d="m5.8762 23 20 18h16c1.108 0 2.1224-0.89878 2-2l-2-16z" opacity=".2"/></g></svg>