<svg xmlns="http://www.w3.org/2000/svg" xmlns:xlink="http://www.w3.org/1999/xlink" id="svg2817" width="48" height="48" version="1.0"><metadata id="metadata57"/><defs id="defs2819"><linearGradient id="linearGradient4135" x1="160" x2="180" y1="180" y2="200" gradientTransform="translate(-136.51 -161)" gradientUnits="userSpaceOnUse"><stop id="stop3683" offset="0"/><stop id="stop3685" offset="1" stop-opacity="0"/></linearGradient></defs><g id="g4467" transform="translate(0,1)"><path id="path4081" fill="#009587" d="m4 5c-1.108 0-2.1374 0.9006-2 2l2 16h40l2-16c0.137-1.0994-0.892-2-2-2z"/><path id="path4148" fill="#009587" d="m4 23v18c0 1.108 0.892 2 2 2h36c1.108 0 2-0.892 2-2v-18z"/><path id="path4194" d="m4 23v18c0 1.108 0.892 2 2 2h36c1.108 0 2-0.892 2-2v-18z" opacity=".4"/><path id="rect4002" fill="#009587" d="m6 3c-1.108 0-2 0.892-2 2v18h40v-18c0-1.108-0.892-2-2-2z"/><path id="path4146" d="m4 6c-0.8989 0-1.7231 0.5955-1.9375 1.4062l1.9375 15.594h40l1.938-15.594c-0.215-0.8105-1.039-1.406-1.938-1.406z" opacity=".3"/><path id="rect4203-3" fill="#009587" d="m4 23-2 16c-0.13743 1.0994 0.892 2 2 2h40c1.108 0 2.1374-0.90055 2-2l-2-16z"/><path id="path4220" fill="#fff" d="m6 3c-1.108 0-2 0.892-2 2v1c0-1.108 0.892-2 2-2h36c1.108 0 2 0.892 2 2v-1c0-1.108-0.892-2-2-2z" opacity=".2"/><path id="path4200" fill="#fff" d="m4 5c-1.108 0-2.1374 0.9006-2 2l0.0625 0.4062c0.2144-0.8107 1.0386-1.4062 1.9375-1.4062h40c0.89889 0 1.7231 0.59548 1.9375 1.4062l0.062-0.4062c0.137-1.0994-0.892-2-2-2z" opacity=".4"/><path id="path4211" fill="#fff" d="m2.0625 38.594-0.0625 0.406c-0.13743 1.0994 0.892 2 2 2h15.5l-1.125-1h-14.375c-0.8989 0-1.7231-0.595-1.9375-1.406zm43.875 0c-0.0766 0.28985-0.22943 0.5638-0.4375 0.78125-0.006 0.006 0.006 0.0252 0 0.0312-0.12733 0.90976-1.0305 1.5938-2 1.5938h0.5c1.108 0 2.1374-0.90056 2-2z" opacity=".2"/><path id="path4124" fill="url(#linearGradient4135)" d="m3.495 23 16 18h24c1.108 0 2.1224-0.89878 2-2l-2-16z" opacity=".2"/><path id="path4226" d="m6 43c-1.108 0-2-0.892-2-2v-1c0 1.108 0.892 2 2 2h36c1.108 0 2-0.892 2-2v1c0 1.108-0.892 2-2 2z" opacity=".3"/><g id="g4741" opacity=".2" transform="matrix(1.6919 0 0 1.6919 -674.74 475.89)"><path id="path4743" d="m413-273c1.6569 0 3 1.3432 3 3s-1.3431 3-3 3-3-1.3432-3-3 1.3431-3 3-3zm0 8c5.9998-0.003 5.9998 4.0034 5.9998 4.0034v1h-12v-1s0-4 6.0002-4.0034z" style="color:#000;block-progression:tb;text-decoration-line:none;text-transform:none;text-indent:0"/></g><path id="path6174-8" fill="#fff" d="m24 13c2.8032 0 5.0756 2.2725 5.0756 5.0756s-2.2724 5.0756-5.0756 5.0756-5.0756-2.2725-5.0756-5.0756 2.2724-5.0756 5.0756-5.0756zm0 13.535c10.151-0.005 10.151 6.7732 10.151 6.7732v1.6919h-20.302v-1.6919s0-6.7675 10.152-6.7732z" style="color:#000;block-progression:tb;text-decoration-line:none;text-transform:none;text-indent:0"/></g></svg>