<svg xmlns="http://www.w3.org/2000/svg" id="svg2817" width="48" height="48" version="1.0"><metadata id="metadata57"/><rect id="rect4404" width="7" height="4" x="7" y="8" fill="#fff" rx="0" ry="1"/><rect id="rect4203-2" width="32" height="40" x="-41" y="-44" fill="#d2d2d2" rx="2" ry="2" transform="matrix(0,-1,-1,0,0,0)"/><circle id="circle4484" cx="24" cy="26" r="13" stroke="#000" stroke-linecap="round" stroke-linejoin="round" stroke-width="2" opacity=".05"/><circle id="circle4477" cx="24" cy="26.136" r="13" opacity=".2"/><circle id="path4369-5" cx="24" cy="25" r="13" fill="#fff"/><circle id="circle4385-8" cx="24" cy="-25" r="11" fill="#009587" transform="scale(1,-1)"/><path id="circle4387" d="m13.021 25.5a11 10.918 0 0 1 -0.021 -0.582 11 10.918 0 0 1 11 -10.918 11 10.918 0 0 1 11 10.918 11 10.918 0 0 1 -0.022 0.411 11 10.918 0 0 0 -10.978 -10.336 11 10.918 0 0 0 -10.979 10.507z" opacity=".2"/><circle id="circle4394" cx="39" cy="15" r="2" opacity=".2"/><circle id="path4392" cx="39" cy="14.136" r="2" fill="#fff"/><path id="circle4412" fill="#fff" d="m28.243 20.764a6 6 0 0 0 -8.4853 0l4.242 4.242 4.243-4.242z" opacity=".2"/><path id="path4420" fill="#fff" d="m28.243 20.764a6 6 0 0 1 0 8.4853l-4.243-4.243 4.243-4.242z" opacity=".4"/><path id="path4422" fill="#fff" d="m19.757 29.249a6 6 0 0 1 0 -8.4853l4.243 4.242-4.243 4.243z" opacity=".4"/><path id="path4433" fill="#fff" d="m19.757 29.249a6 6 0 0 0 8.4853 0l-4.242-4.243-4.243 4.243z" opacity=".6"/><path id="rect4479" fill="#fff" d="m42 9c1.108 0 2 0.892 2 2v1c0-1.108-0.892-2-2-2h-36c-1.108 0-2 0.892-2 2v-1c0-1.108 0.892-2 2-2h36z" opacity=".2"/><path id="rect4406-4" d="m4 38v1c0 1.108 0.892 2 2 2h36c1.108 0 2-0.892 2-2v-1c0 1.108-0.892 2-2 2h-36c-1.108 0-2-0.892-2-2z" opacity=".3"/></svg>