<svg xmlns="http://www.w3.org/2000/svg" xmlns:xlink="http://www.w3.org/1999/xlink" id="svg2817" width="48" height="48" version="1.0"><metadata id="metadata57"/><g id="g4434" transform="translate(0,1)"><rect id="rect4203-4" width="40" height="40" x="-43" y="-44" fill="#3e50b4" rx="20" ry="20" transform="matrix(0,-1,-1,0,0,0)"/><path id="path4457" d="m24 11c-1.6568 0-3 1.3432-3 3s1.3432 3 3 3 3-1.3432 3-3-1.3432-3-3-3zm-10 8v2h7v16h2v-8h2v8h2v-16h7v-2h-13z" opacity=".2"/><path id="rect3240" fill="#fff" d="m24 10c-1.6568 0-3 1.3432-3 3s1.3432 3 3 3 3-1.3432 3-3-1.3432-3-3-3zm-10 8v2h7v16h2v-8h2v8h2v-16h7v-2h-13z"/><path id="path4068" fill="#fff" d="m24 3c-11.08 0-20 8.92-20 20 0 0.168-0.004 0.333 0 0.5 0.2644-10.846 9.088-19.5 20-19.5s19.736 8.654 20 19.5c0.004-0.167 0-0.332 0-0.5 0-11.08-8.92-20-20-20z" opacity=".2"/><path id="rect3289" d="m4.0117 22.5c-0.0041 0.167-0.0117 0.332-0.0117 0.5 0 11.08 8.92 20 20 20s20-8.92 20-20c0-0.168-0.008-0.333-0.012-0.5-0.264 10.846-9.076 19.5-19.988 19.5s-19.724-8.654-19.988-19.5z" opacity=".3"/></g></svg>