<svg xmlns="http://www.w3.org/2000/svg" id="svg2817" width="48" height="48" version="1.0"><metadata id="metadata57"/><path id="rect4203" fill="#4d4d4d" d="m44 40v-32c0-1.108-0.892-2-2-2h-36c-1.108 0-2 0.892-2 2v32c0 1.108 0.892 2 2 2h36c1.108 0 2-0.892 2-2z"/><path id="rect4100" fill="#fff" d="m14 17h4v1h-4z" opacity=".8" style="color:#bebebe"/><path id="path3930" fill="#fff" d="m10.07 11.5h0.8644v0.48913c0.23892 0.0478 0.45959 0.14055 0.662 0.27828 0.2052 0.13493 0.39072 0.30218 0.55655 0.50175l-0.5102 0.6451s-0.15284-0.1932-0.22348-0.28248c-0.05623-0.06465-0.13212-0.1279-0.22769-0.18974-0.09276-0.06184-0.19255-0.1054-0.29936-0.13071v1.2692c0.22768 0.07309 0.42867 0.1546 0.60295 0.24456 0.17428 0.08995 0.31904 0.19396 0.4343 0.31202 0.11806 0.11806 0.2066 0.25158 0.26564 0.40056 0.05903 0.14617 0.08854 0.31342 0.08854 0.50175-0.000005 0.17709-0.0309 0.34716-0.09276 0.5102-0.06184 0.16022-0.1518 0.3064-0.26986 0.43851-0.11525 0.13212-0.2558 0.24596-0.42164 0.34153-0.16585 0.09558-0.35418 0.16444-0.565 0.20661v0.4638h-0.8644v-0.43851c-0.2642-0.044-0.5186-0.133-0.7632-0.265s-0.4624-0.304-0.6536-0.515l0.52705-0.7421 0.24457 0.30358c0.095575 0.104 0.19676 0.19255 0.30358 0.26564 0.10962 0.07308 0.23752 0.12509 0.3837 0.15601v-1.5432c-0.2052-0.0759-0.38932-0.16022-0.55235-0.25298-0.16023-0.09276-0.29656-0.19536-0.409-0.3078-0.1094-0.115-0.1938-0.241-0.2528-0.379-0.059-0.14-0.0885-0.294-0.0885-0.459 0-0.15741 0.0295-0.3078 0.088545-0.45116 0.05903-0.14336 0.14336-0.27266 0.25298-0.38791 0.10963-0.11524 0.24174-0.21363 0.39635-0.29516 0.15741-0.08432 0.33169-0.14616 0.52285-0.18552v-0.50175m0.8222 4.714c0.15179-0.05341 0.27406-0.1293 0.36683-0.22768 0.09557-0.09838 0.14336-0.2291 0.14336-0.39213-0.000005-0.13492-0.04215-0.25298-0.1265-0.35418-0.08152-0.10119-0.20942-0.18271-0.3837-0.24455v1.2186m-0.78005-3.4111c-0.11806 0.0309-0.21364 0.08574-0.28672 0.16444-0.07309 0.07871-0.10963 0.1799-0.10963 0.30358 0 0.08995 0.0295 0.18272 0.088545 0.27828 0.05903 0.09558 0.16163 0.16866 0.3078 0.21926v-0.96555" opacity=".8"/><path id="path4457" fill="#fff" d="m6 6c-1.108 0-2 0.892-2 2v1c0-1.108 0.892-2 2-2h36c1.108 0 2 0.892 2 2v-1c0-1.108-0.892-2-2-2h-36z" opacity=".2"/><path id="path4458" d="m4 39v1c0 1.108 0.892 2 2 2h36c1.108 0 2-0.892 2-2v-1c0 1.108-0.892 2-2 2h-36c-1.108 0-2-0.892-2-2z" opacity=".3"/></svg>