<svg xmlns="http://www.w3.org/2000/svg" xmlns:xlink="http://www.w3.org/1999/xlink" id="svg2817" width="48" height="48" version="1.0"><metadata id="metadata57"/><defs id="defs2819"><linearGradient id="linearGradient4135" x1="166" x2="176" y1="257" y2="257" gradientUnits="userSpaceOnUse"><stop id="stop3683" offset="0"/><stop id="stop3685" offset="1" stop-opacity="0"/></linearGradient></defs><g id="g4457" transform="translate(0,1)"><path id="path4078" fill="#0286c2" d="m44 5-4 4v18c0 1.108-0.892 2-2 2h-20c-1.108 0-2-0.892-2-2v-20c0-1.108 0.892-2 2-2h26z"/><path id="rect4093" d="m20 11v2h16v-2h-16zm0 4v2h16v-2h-16zm0 4v2h12v-2h-12z" opacity=".2"/><path id="path4127" fill="#0286c2" d="m44 5-4 4v18c0 1.108-0.892 2-2 2h-20c-1.108 0-2-0.892-2-2v-20c0-1.108 0.892-2 2-2h26z"/><path id="path4452" d="m43 5-3 3v1l4-4h-1zm-27 21v1c0 1.108 0.892 2 2 2h20c1.108 0 2-0.892 2-2v-1c0 1.108-0.892 2-2 2h-20c-1.108 0-2-0.892-2-2z" opacity=".3"/><path id="path4119" fill="url(#linearGradient4135)" d="m165.78 254c-0.97225 0.10705-1.787 1.0219-1.7812 2v16c0.0001 1.0472 0.95283 1.9999 2 2h1.7404l0.0101-7.998c1.0472-0.0001 6.5272 0.0121 6.5272 0.0121l0.95573-0.41649c-0.004-0.52204 0.93441-0.68707 0.56319-1.0541l0.13884-1.4205-8.5292-8.5292c-0.41655-0.42679-1.0314-0.65146-1.625-0.59375z" opacity=".2" transform="translate(-136,-237)" style="color:#000;block-progression:tb;text-decoration-line:none;text-transform:none;text-indent:0"/><path id="path3284" fill="#35b9f5" d="m4 17 4 4v18c0 1.108 0.892 2 2 2h20c1.108 0 2-0.892 2-2v-20c0-1.108-0.892-2-2-2h-26z"/><path id="rect4080" fill="#fff" d="m12 23v2h16v-2h-16zm0 4v2h16v-2h-16zm0 4v2h12v-2h-12z" opacity=".6"/><path id="path4137" fill="#fff" d="m18 5c-1.108 0-2 0.892-2 2v0.5c0-1.108 0.892-2 2-2h25.5l0.5-0.5h-26z" opacity=".2"/><path id="path4139" fill="#fff" d="m4 17 0.5 0.5h25.5c1.108 0 2 0.892 2 2v-0.5c0-1.108-0.892-2-2-2h-26z" opacity=".2"/><path id="path4447" d="m4 17 4 4v-1l-3-3h-1zm4 21v1c0 1.108 0.892 2 2 2h20c1.108 0 2-0.892 2-2v-1c0 1.108-0.892 2-2 2h-20c-1.108 0-2-0.892-2-2z" opacity=".3"/></g></svg>