<svg xmlns="http://www.w3.org/2000/svg" id="svg4430" width="48" height="48" version="1.1" viewBox="0 0 48 48"><metadata id="metadata4435"/><g id="layer1" transform="translate(0 -1004.4)"><rect id="rect4203" width="40" height="40" x="-1050.4" y="-42" fill="#e9e5dc" rx="2" ry="2" transform="matrix(0,-1,-1,0,0,0)"/><path id="rect4592" fill="#fff" d="m4.0001 1010.4c-1.108 0-2 0.892-2 2v1c0-1.108 0.892-2 2-2h36c1.108 0 2 0.892 2 2v-1c0-1.108-0.892-2-2-2h-36z" opacity=".1"/><path id="path4397" fill="#2095f2" fill-rule="evenodd" d="m4.0001 1050.4 18-18 18 18z"/><path id="path4399" fill="#1ea362" fill-rule="evenodd" d="m42 1048.4-18-18 18-18z"/><path id="path4395" fill="#feea3a" fill-rule="evenodd" d="m23.768 1028.6-3.5352 3.5371 18.23 18.23h1.5371c1.108 0 2-0.892 2-2v-1.5352l-18.232-18.232z" style="color-rendering:auto;text-decoration-color:#000;color:#000;isolation:auto;mix-blend-mode:normal;shape-rendering:auto;solid-color:#000;block-progression:tb;text-decoration-line:none;text-decoration-style:solid;image-rendering:auto;white-space:normal;text-indent:0;text-transform:none"/><path id="path4393" fill="#fff" fill-rule="evenodd" d="m38.465 1010.4-36.465 36.4v1.5352c0 1.108 0.892 2 2 2h1.5371l36.463-36.4v-1.5371c0-1.108-0.892-2-2-2h-1.5352z" style="color-rendering:auto;text-decoration-color:#000;color:#000;isolation:auto;mix-blend-mode:normal;shape-rendering:auto;solid-color:#000;block-progression:tb;text-decoration-line:none;text-decoration-style:solid;image-rendering:auto;white-space:normal;text-indent:0;text-transform:none"/><path id="path4179" d="m34 1008.4c-6.6275 0-12 5.2753-12 11.783 0 0.4067 0.03408 0.7821 0.07488 1.1782 0.03288 0.3942 0.08592 0.7922 0.15 1.1783 1.374 8.2821 6.9752 14.148 11.775 18.861 4.8-4.7131 10.401-10.578 11.775-18.861 0.06408-0.3861 0.11712-0.7841 0.15-1.1783 0.04104-0.3961 0.07488-0.7715 0.07488-1.1782 0-6.5076-5.3726-11.783-12-11.783z" opacity=".2" style="color:#000;enable-background:new"/><path id="path4534" fill="#f34235" d="m34 1007.4c-6.6275 0-12 5.2753-12 11.783 0 0.4067 0.03408 0.7821 0.07488 1.1782 0.03288 0.3942 0.08592 0.7922 0.15 1.1783 1.374 8.2821 6.9752 14.148 11.775 18.861 4.8-4.7131 10.401-10.578 11.775-18.861 0.06408-0.3861 0.11712-0.7841 0.15-1.1783 0.04104-0.3961 0.07488-0.7715 0.07488-1.1782 0-6.5076-5.3726-11.783-12-11.783z" style="color:#000;enable-background:new"/><path id="path4619" d="m34 1014.4c2.7614 0 5 2.2386 5 5s-2.2386 5-5 5-5-2.2386-5-5 2.2386-5 5-5z" opacity=".2" style="color:#000;enable-background:new"/><path id="path4536" fill="#fff" d="m34 1013.4c2.7614 0 5 2.2386 5 5s-2.2386 5-5 5-5-2.2386-5-5 2.2386-5 5-5z" style="color:#000;enable-background:new"/><path id="path4597" d="m4.0001 1050.4c-1.108 0-2-0.892-2-2v-1c0 1.108 0.892 2 2 2h36c1.108 0 2-0.892 2-2v1c0 1.108-0.892 2-2 2h-36z" opacity=".3"/></g></svg>