<svg xmlns="http://www.w3.org/2000/svg" id="svg2817" width="48" height="48" version="1.0"><metadata id="metadata57"/><path id="rect4203" fill="#4d4d4d" d="m40 42v-36c0-1.108-0.892-2-2-2h-28c-1.108 0-2 0.892-2 2v36c0 1.108 0.892 2 2 2h28c1.108 0 2-0.892 2-2z"/><path id="rect4199" fill="#fff" d="m10 4c-1.108 0-2 0.892-2 2v1c0-1.108 0.892-2 2-2h28c1.108 0 2 0.892 2 2v-1c0-1.108-0.892-2-2-2z" opacity=".1"/><path id="rect4231" fill="#f5f5f5" d="m12 7c-1 0-1 1-1 1v32s0 1 1 1h24.062s0.938 0 0.938-1v-20l-12.234-13zm16.883 0 8.117 8.625v-7.625c0-1-1-1-1-1z"/><path id="path4009" d="m38 5c1.108 0 2 0.892 2 2v17h-32v-17c0-1.108 0.892-2 2-2z" opacity=".05" style="enable-background:new"/><path id="path4542" d="m8 41v1c0 1.108 0.892 2 2 2h28c1.108 0 2-0.892 2-2v-1c0 1.108-0.892 2-2 2h-28c-1.108 0-2-0.892-2-2z" opacity=".3"/></svg>