<svg xmlns="http://www.w3.org/2000/svg" id="svg2817" width="48" height="48" version="1.0"><metadata id="metadata57"/><g id="g4459"><path id="rect4203" fill="#ebebeb" d="m38 41v-36c0-1.108-0.892-2-2-2h-28c-1.108 0-2 0.892-2 2v36c0 1.108 0.892 2 2 2h28c1.108 0 2-0.892 2-2z"/><path id="rect4199" fill="#fff" d="m8 3c-1.108 0-2 0.892-2 2v1c0-1.108 0.892-2 2-2h28c1.108 0 2 0.892 2 2v-1c0-1.108-0.892-2-2-2z" opacity=".2"/><path id="path4009" d="m36 4c1.108 0 2 0.892 2 2v17h-32v-17c0-1.108 0.892-2 2-2z" opacity=".05" style="enable-background:new"/><path id="path4447" d="m6 40v1c0 1.108 0.892 2 2 2h28c1.108 0 2-0.892 2-2v-1c0 1.108-0.892 2-2 2h-28c-1.108 0-2-0.892-2-2z" opacity=".3"/><circle id="path4058-7" cx="30" cy="33" r="12" fill="#f34235" style="enable-background:new"/><path id="path4-0" fill="#fff" d="m24 36.327v2.6728h2.6728l6.7507-6.7507-2.6728-2.6728zm11.788-6.4337c0.28271-0.28271 0.28271-0.72818 0-1.0109l-1.6705-1.6705c-0.28271-0.28271-0.72818-0.28271-1.0109 0l-1.3964 1.405 2.6728 2.6728z" style="enable-background:new"/><path id="circle4454" d="m41.98 32.406a12 12 0 0 1 -11.98 11.594 12 12 0 0 1 -11.98 -11.406 12 12 0 0 0 -0.02 0.406 12 12 0 0 0 12 12 12 12 0 0 0 12 -12 12 12 0 0 0 -0.02 -0.594z" opacity=".3" style="enable-background:new"/></g></svg>