<svg xmlns="http://www.w3.org/2000/svg" id="svg2817" width="48" height="48" version="1.0"><metadata id="metadata57"/><path id="path4159" fill="#bb9e7b" d="m4 36v-28c0-1.108 0.89878-2.1224 2-2h16l4 4h16.103s1.8975 0 1.8975 2v24c0 1.108-0.892 2-2 2h-36c-1.108 0-2-0.892-2-2z"/><path id="rect3454" fill="#c6ae91" d="m44 40v-22.958c0-1.108-0.89878-2.1224-2-2h-16l-4 4h-16c-2 0-2 1.9167-2 1.9167v19.041c0 1.108 0.892 2 2 2h36c1.108 0 2-0.892 2-2z"/><path id="path4494-3" d="m4 38.989v1.006c0 1.108 0.892 2 2 2h36c1.108 0 2-0.892 2-2v-1.0059c0 1.108-0.892 2-2 2h-36c-1.108 0-2-0.89201-2-2z" opacity=".3"/><path id="path4356" fill="#fff" d="m26 15.041l-4 4h-16c-2 0-2 1.918-2 1.918v1s0-1.918 2-1.918h16l4-4h16c1.101-0.122 2 0.892 2 2v-1c0-1.108-0.899-2.122-2-2h-16z" opacity=".1"/><path id="path4361" d="m26 14.082-4 4h-16c-2 0-2 1.918-2 1.918v1s0-1.918 2-1.918h16l4-4h16c1.1012-0.1224 2 0.892 2 2v-1c0-1.108-0.89878-2.1224-2-2h-16z" opacity=".1"/><path id="path4382" fill="#fff" d="m6 6c-1.1012-0.1224-2 0.892-2 2v1c0-1.108 0.8988-2.1224 2-2h16l4 4h16.104s1.896 0 1.896 2v-1c0-2-1.896-2-1.896-2h-16.104l-4-4h-16z" opacity=".1"/></svg>