<svg xmlns="http://www.w3.org/2000/svg" id="svg2817" width="48" height="48" version="1.0"><metadata id="metadata57"/><path id="rect4203" fill="#6993c4" d="m44 40v-32c0-1.108-0.892-2-2-2h-36c-1.108 0-2 0.892-2 2v32c0 1.108 0.892 2 2 2h36c1.108 0 2-0.892 2-2z"/><path id="path4439" fill="#fff" d="m42 42c1.108 0 2-0.892 2-2v-15h-40v15c0 1.108 0.892 2 2 2z" opacity=".05" style="enable-background:new"/><path id="path4453" fill="#fff" d="m18.02 16a1 1 0 0 0 -1.02 1v15.999a1 1 0 0 0 1.496 0.86909l13.999-7.999a1 1 0 0 0 0 -1.7382l-13.999-8a1 1 0 0 0 -0.47596 -0.13099z" opacity=".8"/><path id="path4294" d="m6 6c-1.108 0-2 0.892-2 2v17h40v-17c0-1.108-0.892-2-2-2z" opacity=".05" style="enable-background:new"/><path id="rect4079" d="m4 39v1c0 1.108 0.892 2 2 2h36c1.108 0 2-0.892 2-2v-1c0 1.108-0.892 2-2 2h-36c-1.108 0-2-0.892-2-2z" opacity=".3"/></svg>