<svg xmlns="http://www.w3.org/2000/svg" xmlns:xlink="http://www.w3.org/1999/xlink" id="svg2817" width="48" height="48" version="1.0"><metadata id="metadata57"/><g id="g4479" transform="translate(0 .5)"><path id="rect4203" fill="#e6e6e6" d="m17 3.5-2 2v4h-12v30c0 1.108 0.892 2 2 2h36c1.108 0 2-0.892 2-2v-30h-12v-4l-2-2zm0 2h12v4h-12z"/><rect id="rect3293" width="12" height="2" x="17" y="3.5" opacity=".2"/><path id="rect3295" d="m3 9.5v16h40v-16z" opacity=".05"/><path id="path8327" fill="#fff" d="m17 3.5-2 2v1l2-2h12l2 2v-1l-2-2h-12zm-14 6v1h12v-1h-12zm14 0v1h12v-1h-12zm14 0v1h12v-1h-12z" opacity=".1"/><path id="path4473" d="m17 4.5v1h12v-1h-12zm-14 34v1c0 1.108 0.892 2 2 2h36c1.108 0 2-0.892 2-2v-1c0 1.108-0.892 2-2 2h-36c-1.108 0-2-0.892-2-2z" opacity=".3"/></g><circle id="path4058" cx="33" cy="33" r="12" fill="#4ab3e4" style="enable-background:new"/><path id="path6245-9" fill="#fff" d="m35 26v5.0536h2.625l-4.625 6.946-4.625-7h2.625v-5h4zm-7 12h10v2h-10z"/><path id="circle4486" d="m44.98 32.406a12 12 0 0 1 -11.98 11.594 12 12 0 0 1 -11.98 -11.406 12 12 0 0 0 -0.02 0.406 12 12 0 0 0 12 12 12 12 0 0 0 12 -12 12 12 0 0 0 -0.02 -0.594z" opacity=".3" style="enable-background:new"/></svg>