<svg xmlns="http://www.w3.org/2000/svg" id="svg2817" width="48" height="48" version="1.0"><metadata id="metadata57"/><path id="rect4203" fill="#4d4d4d" d="m44 40v-32c0-1.108-0.892-2-2-2h-36c-1.108 0-2 0.892-2 2v32c0 1.108 0.892 2 2 2h36c1.108 0 2-0.892 2-2z"/><path id="rect4100" fill="#0f0" d="m14 17h4v1h-4z" style="color:#bebebe"/><g id="text3894" fill="#b8c1c2" transform="matrix(.5 0 0 .5 -140.03 -103)" style="enable-background:new"><path id="path3930" fill="#0f0" d="m300.2 229h1.7288v0.97826c0.47785 0.0956 0.91918 0.2811 1.324 0.55657 0.41039 0.26986 0.78144 0.60436 1.1131 1.0035l-1.0204 1.2902s-0.30568-0.38639-0.44695-0.56497c-0.11245-0.1293-0.26424-0.25579-0.45538-0.37948-0.18553-0.12367-0.3851-0.21081-0.59873-0.26142v2.5383c0.45537 0.14618 0.85734 0.30921 1.2059 0.48911 0.34855 0.17991 0.63808 0.38792 0.86859 0.62403 0.23611 0.23613 0.4132 0.50317 0.53127 0.80113 0.11805 0.29234 0.17708 0.62684 0.17709 1.0035-0.00001 0.35418-0.0618 0.69431-0.18552 1.0204-0.12369 0.32045-0.30359 0.61279-0.53971 0.87702-0.2305 0.26423-0.5116 0.49192-0.84329 0.68306-0.3317 0.19115-0.70836 0.32889-1.13 0.41322v0.92761h-1.7288v-0.87702c-0.52846-0.09-1.0372-0.26704-1.5264-0.53127-0.48911-0.26423-0.92481-0.60717-1.3071-1.0288l1.0541-1.4842 0.48914 0.60717c0.19115 0.20801 0.39353 0.3851 0.60717 0.53127 0.21925 0.14617 0.47505 0.25018 0.76739 0.31202v-3.0864c-0.4104-0.15179-0.77864-0.32045-1.1047-0.50597-0.32046-0.18552-0.59312-0.39072-0.818-0.6156-0.21925-0.2305-0.38791-0.48348-0.50597-0.75896-0.11806-0.28109-0.17709-0.58749-0.17709-0.91919 0-0.31482 0.059-0.61559 0.17709-0.90232 0.11806-0.28671 0.28672-0.54532 0.50597-0.77582 0.21926-0.23049 0.48349-0.42726 0.7927-0.59031 0.31482-0.16864 0.66338-0.29233 1.0457-0.37104v-1.0035m1.6444 9.428c0.30358-0.10681 0.54813-0.2586 0.73366-0.45537 0.19114-0.19677 0.28671-0.45819 0.28672-0.78426-0.00001-0.26985-0.0843-0.50597-0.25299-0.70837-0.16304-0.20238-0.41884-0.36542-0.76739-0.4891v2.4371m-1.5601-6.8222c-0.23612 0.0618-0.42727 0.17147-0.57343 0.32888-0.14618 0.15742-0.21926 0.35981-0.21926 0.60717 0 0.17991 0.059 0.36543 0.17709 0.55657 0.11806 0.19115 0.32326 0.33732 0.6156 0.43851v-1.9311"/></g><path id="path4421" fill="#fff" d="m6 6c-1.108 0-2 0.892-2 2v1c0-1.108 0.892-2 2-2h36c1.108 0 2 0.892 2 2v-1c0-1.108-0.892-2-2-2h-36z" opacity=".2"/><path id="path4460" d="m4 39v1c0 1.108 0.892 2 2 2h36c1.108 0 2-0.892 2-2v-1c0 1.108-0.892 2-2 2h-36c-1.108 0-2-0.892-2-2z" opacity=".3"/></svg>