<svg xmlns="http://www.w3.org/2000/svg" xmlns:xlink="http://www.w3.org/1999/xlink" id="svg2817" width="48" height="48" version="1.0"><metadata id="metadata57"/><defs id="defs2819"><filter id="filter6866" width="1.256" height="4.84" x="-.128" y="-1.92" style="color-interpolation-filters:sRGB"><feGaussianBlur id="feGaussianBlur6868" stdDeviation="1.6"/></filter></defs><path id="path4597" d="m6 43c-1.108 0-2-0.892-2-2v-1c0 1.108 0.892 2 2 2h36c1.108 0 2-0.892 2-2v1c0 1.108-0.892 2-2 2h-36z" opacity=".1"/><rect id="rect5716" width="32" height="36" x="8" y="5" fill="#ece9d8"/><rect id="rect6359" width="30" height="2" x="9" y="15" fill="#d435f3" filter="url(#filter6866)" opacity=".8" rx="0" ry="0"/><rect id="rect5718" width="30" height="2" x="9" y="14" fill="#f34235" rx="0" ry="0"/><path id="rect6447" fill="#3f3f3f" d="m6 4c-1.108 0-2 0.892-2 2v36c0 1.108 0.892 2 2 2h36c1.108 0 2-0.892 2-2v-36c0-1.108-0.892-2-2-2h-36zm3 3h30v34h-30v-34z"/><path id="path4911" fill="#fff" d="m6 4c-1.108 0-2 0.892-2 2v1c0-1.108 0.892-2 2-2h36c1.108 0 2 0.892 2 2v-1c0-1.108-0.892-2-2-2h-36zm3 37v1h30v-1h-30z" opacity=".2"/><path id="path4916" d="m9 6v1h30v-1h-30zm-5 35v1c0 1.108 0.892 2 2 2h36c1.108 0 2-0.892 2-2v-1c0 1.108-0.892 2-2 2h-36c-1.108 0-2-0.892-2-2z" opacity=".2"/></svg>