<svg xmlns="http://www.w3.org/2000/svg" xmlns:xlink="http://www.w3.org/1999/xlink" id="svg2817" width="48" height="48" version="1.0"><metadata id="metadata57"/><defs id="defs2819"><clipPath id="clipPath5086" clipPathUnits="userSpaceOnUse"><path id="path5088" d="m482.16 43.278-68 117.78-4 6.9282c-4.432 7.6764-1.82 17.424 5.8564 21.856s17.424 1.82 21.856-5.8564l4-6.9282 68-117.78-27.713-16z" opacity=".2"/></clipPath><filter id="filter5098" width="1.72" height="1.144" x="-.36" y="-.072" style="color-interpolation-filters:sRGB"><feGaussianBlur id="feGaussianBlur5100" stdDeviation="4.8"/></filter><filter id="filter5052" width="1.24" height="1.24" x="-.12" y="-.12" style="color-interpolation-filters:sRGB"><feGaussianBlur id="feGaussianBlur5054" stdDeviation=".2"/></filter></defs><g id="g5008" transform="translate(-.00022144 1.0429)"><path id="path4113" fill="#02a8f3" d="m12 38.957c0 2.216-1.784 4-4 4h4v-4z"/><path id="rect4115" fill="#9adcfa" d="m36 34.957v8h-8v-8z"/><path id="rect4117" fill="#67cbf8" d="m28 34.957v8h-8v-8z"/><path id="rect4119" fill="#35b9f5" d="m20 34.957v8h-8v-8z"/><path id="rect4121" fill="#cceefd" d="m44 34.957v8h-8v-8z"/><path id="path5120" d="m408 32v144c0 8.864 7.136 16 16 16s16-7.136 16-16v-144h-32z" clip-path="url(#clipPath5086)" filter="url(#filter5098)" opacity=".2" transform="matrix(.125 .21651 -.21651 .125 -6.8994 -74.843)"/><path id="path4125" fill="#9b26af" d="m9.467 33.49-2.5391 1.4668h3.3867l-0.84765-1.4668zm2.5332 4.3867v1.0801c0 1.5443-0.87513 2.8641-2.1504 3.5312 0.0508-0.0265 0.10421-0.0414 0.1543-0.0703l3.4629-2-1.4668-2.541zm-7.9746 1.3281c0.008 0.12569 0.017 0.2496 0.0371 0.375-0.0192-0.12291-0.0293-0.24858-0.0371-0.375zm0.14258 0.84765c0.0247 0.0854 0.0495 0.16951 0.0801 0.25391-0.0298-0.0832-0.0557-0.16822-0.0801-0.25391zm0.32226 0.79102c0.0192 0.0357 0.0284 0.074 0.0488 0.10937 0.0119 0.0206 0.0288 0.0363 0.041 0.0566-0.0323-0.0538-0.0601-0.11054-0.0899-0.16601zm0.44141 0.65625c0.0449 0.0544 0.0875 0.1106 0.13477 0.16211-0.0477-0.0517-0.0898-0.10788-0.13477-0.16211zm0.52148 0.52148c0.0671 0.0559 0.131 0.11494 0.20118 0.16602-0.0707-0.0513-0.13415-0.11032-0.20118-0.16602zm0.63672 0.4336c0.0749 0.041 0.14747 0.0851 0.22461 0.12109-0.0775-0.036-0.14993-0.0804-0.22461-0.12109zm3.2832 0.24804c-0.0974 0.0356-0.19799 0.0638-0.29883 0.0918 0.10034-0.0281 0.19982-0.0554 0.29883-0.0918zm-2.6055 0.043c0.0965 0.0314 0.1905 0.0658 0.28906 0.0898-0.099-0.0239-0.19313-0.0588-0.28906-0.0898zm1.8691 0.14844c-0.1279 0.0204-0.2589 0.031-0.39063 0.0391 0.13064-0.008 0.26031-0.018 0.39063-0.0391zm-1.1699 0.01c0.13137 0.0178 0.26154 0.0344 0.39453 0.0391-0.13399-0.005-0.26428-0.0217-0.39453-0.0391z"/><path id="rect4127" fill="#d7a8df" d="m30.252 21.49c2.5536 1.5863 4.5939 3.4768 4 6.9282l-6.9282 4c-2.9734-1.5197-4.2079-3.8767-4-6.9282z"/><path id="rect4129" fill="#c37dcf" d="m23.324 25.49 4 6.9282-6.9282 4c-5.6268 0.26666-4.8959-3.2812-4-6.9282z"/><path id="rect4131" fill="#af51bf" d="m16.396 29.489 4 6.9282-6.9282 4-4-6.9282z"/><path id="rect4133" fill="#ebd4ef" d="m37.181 17.489 4 6.9282-6.9282 4-4-6.9282z"/><path id="path5118" d="m408 32v144c0 8.864 7.136 16 16 16s16-7.136 16-16v-144h-32z" clip-path="url(#clipPath5086)" filter="url(#filter5098)" opacity=".2" transform="matrix(.21651 .125 -.125 .21651 -61.786 -52.164)"/><path id="path4137" fill="#f34235" d="m6.5393 33.49-0.84765 1.4668h3.3887l-2.541-1.4668zm5.4609 3.1524v2.3144c0 0.76903-0.22641 1.4794-0.59961 2.0879 0.0201-0.0327 0.0471-0.0583 0.0664-0.0918l2-3.4629-1.4668-0.84765zm-7.9863 2.4531c0.005 0.13299 0.0212 0.26316 0.0391 0.39453-0.0174-0.13025-0.0344-0.26054-0.0391-0.39453zm0.10742 0.80469c0.024 0.0986 0.0584 0.19259 0.0898 0.28906-0.031-0.0959-0.066-0.19006-0.0898-0.28906zm0.25977 0.74219c0.036 0.0771 0.0801 0.14972 0.12109 0.22461-0.0407-0.0747-0.0851-0.14711-0.12109-0.22461zm0.38867 0.66015c0.0511 0.0702 0.11009 0.13408 0.16602 0.20118-0.0557-0.067-0.11474-0.13053-0.16602-0.20118zm6.3535 0.13086c-0.07 0.0883-0.13773 0.1778-0.21485 0.25977 0.0765-0.0814 0.14454-0.17101 0.21485-0.25977zm-5.8281 0.45703c0.0515 0.0473 0.10773 0.0899 0.16211 0.13477-0.0542-0.045-0.11036-0.0871-0.16211-0.13477zm5.3106 0.082c-0.0905 0.0781-0.17809 0.15865-0.27539 0.22852 0.0966-0.0693 0.18466-0.15008 0.27539-0.22852zm-4.6582 0.4043c0.0203 0.0122 0.036 0.0291 0.0566 0.041 0.0354 0.0204 0.0737 0.0296 0.10937 0.0488-0.0555-0.0298-0.11217-0.0576-0.16601-0.0899zm4.0254 0.043c-0.1008 0.058-0.1993 0.119-0.305 0.167 0.1053-0.048 0.2036-0.109 0.3047-0.166zm-3.3223 0.28906c0.0844 0.0306 0.16853 0.0554 0.25391 0.0801-0.0857-0.0243-0.17071-0.0503-0.25391-0.0801zm2.6191 0.0254c-0.11033 0.0369-0.21953 0.0762-0.33398 0.10352 0.11377-0.0273 0.223-0.0663 0.33398-0.10352zm-1.8928 0.162c0.1254 0.0201 0.24931 0.0291 0.375 0.0371-0.12642-0.008-0.25209-0.0179-0.375-0.0371zm1.1719 0.008c-0.13526 0.0186-0.27085 0.0362-0.41016 0.041 0.13841-0.005 0.27351-0.0221 0.41016-0.041z"/><path id="rect4139" fill="#fab3ae" d="m18.54 12.705c4.7159-2.6046 5.7834 0.76088 6.9282 4l-4 6.9282c-3.6755 1.2382-10.637 8.6626-6.9282-4z"/><path id="rect4141" fill="#f88e86" d="m14.54 19.633 6.9282 4-4 6.9282c-3.6003 0.63698-6.4729 0.16329-6.9282-4z"/><path id="rect4143" fill="#f5685d" d="m10.54 26.561 6.9282 4-4 6.9282-6.9282-4z"/><path id="rect4145" fill="#fdd9d7" d="m22.54 5.7767 6.9282 4-4 6.9282-6.9282-4z"/><path id="path5116" d="m408 32v144c0 8.864 7.136 16 16 16s16-7.136 16-16v-144h-32z" clip-path="url(#clipPath5086)" filter="url(#filter5098)" opacity=".2" transform="matrix(.25 0 0 .25 -98 -5.0429)"/><path id="rect3262" fill="#fe9700" d="m4.0002 34.957v4c0 2.216 1.784 4 4 4s4-1.784 4-4v-4z"/><path id="rect4046" fill="#ffd599" d="m4.0002 10.957h8v8h-8z"/><path id="rect4048" fill="#fec166" d="m4.0002 18.957h8v8c-2.8816 2.5795-5.589 3.0684-8 0z"/><path id="rect4050" fill="#feac33" d="m4.0002 26.957h8v8h-8z"/><path id="rect4052" fill="#ffeacc" d="m4.0002 2.9571h8v8h-8z"/><path id="path5030" d="m10 39.957a2 2 0 0 1 -2 2 2 2 0 0 1 -2 -2 2 2 0 0 1 2 -2 2 2 0 0 1 2 2z" filter="url(#filter5052)" opacity=".2"/><path id="path4044" fill="#fff" d="m10 38.957a2 2 0 0 1 -2 2 2 2 0 0 1 -2 -2 2 2 0 0 1 2 -2 2 2 0 0 1 2 2z"/><path id="path4778" fill="#fff" d="m4.0002 2.9571v1h8v-1h-8zm18.539 2.8203-4 6.9277-4 6.9277-2.5391 4.3984v1l2.5391-4.3984 4-6.9277 4-6.9277 6.4941 3.75 0.4336-0.75-6.9277-4zm14.641 11.713-6.9277 4-6.9277 4-3.5293 2.0371-0.86523 1.5 4.3945-2.5371 6.9277-4 6.9277-4 3.5664 6.1777 0.4336-0.25-4-6.9277zm-12.521 17.467-1.7324 1h21.074v-1h-19.342z" opacity=".1"/></g><path id="path5229" d="m29.018 10.475-3.5488 6.1445-4 6.9277-2.5371 4.3926 0.9043-0.52148 1.6328-2.8281 4-6.9277 4-6.9277-0.45117-0.25977zm11.748 14.184-17.689 10.213h1.8066l16.295-9.4082-0.03711-0.06445 0.03906-0.02344-0.41406-0.7168zm-36.766 14.213v1.043c0 0.01 0.0009531 0.0193 0.00195 0.0293-0.009 0.69663 0.16012 1.4051 0.53516 2.0547 0.88971 1.541 2.6359 2.264 4.2832 1.916h35.18v-1.043h-35.18c-1.6473 0.34798-3.3935-0.37499-4.2832-1.916-0.37504-0.64959-0.54416-1.3581-0.53516-2.0547-0.0009999-0.01-0.00195-0.0193-0.00195-0.0293z" opacity=".3"/></svg>