<svg xmlns="http://www.w3.org/2000/svg" xmlns:xlink="http://www.w3.org/1999/xlink" id="svg2817" width="48" height="48" version="1.0"><metadata id="metadata57"/><g id="g4444" transform="translate(0 .99498)"><path id="path4159" fill="#bb7bbb" d="m4 35.005v-28c0-1.108 0.89878-2.1224 2-2h16l4 4h16.103s1.8975 0 1.8975 2v24c0 1.108-0.892 2-2 2h-36c-1.108 0-2-0.892-2-2z"/><path id="rect3454" fill="#c691c6" d="m44 39.005v-28c0-1.108-0.89878-2.1224-2-2h-16l-4 4h-16c-2 0-2 1.9167-2 1.9167v24.083c0 1.108 0.892 2 2 2h36c1.108 0 2-0.892 2-2z"/><path id="path4298" fill="#fff" d="m6 5.005c-1.108 0-2 0.892-2 2v1c0-1.108 0.892-2 2-2h16l4 4v-1l-4-4z" opacity=".1"/><path id="path4161" fill="#fff" d="m26 9.005-4 4h-16c-2 0-2 1.9062-2 1.9062v1s0-1.9062 2-1.9062h16l4-4h16c1.1012-0.12236 2 0.892 2 2v-1c0-1.108-0.89878-2.1224-2-2h-16z" opacity=".1"/><path id="path4518" d="m25 9.005-3 3h-16c-2 0-2 1.9062-2 1.9062v1s0-1.9062 2-1.9062h16l3.5-3.5z" opacity=".1"/><path id="path4494-3" d="m4 37.994v1.006c0 1.108 0.892 2 2 2h36c1.108 0 2-0.892 2-2v-1.0059c0 1.108-0.892 2-2 2h-36c-1.108 0-2-0.89201-2-2z" opacity=".3"/></g></svg>