<svg xmlns="http://www.w3.org/2000/svg" xmlns:xlink="http://www.w3.org/1999/xlink" id="svg2817" width="48" height="48" version="1.0"><metadata id="metadata57"/><g id="g4455" transform="translate(0,1)"><path id="rect4203" fill="#311535" d="m44 39v-32c0-1.108-0.892-2-2-2h-36c-1.108 0-2 0.892-2 2v32c0 1.108 0.892 2 2 2h36c1.108 0 2-0.892 2-2z"/><path id="path5243-2" fill="#fff" d="m15.003 17h13.997c1 0 1 1 1 1v12c0 1-1 1-1 1h-13.997s-1 0-1-1v-12s0-1 1-1zm20.997 1.5v11.5l-6-6z" opacity=".8" style="color:#000;block-progression:tb;text-decoration-line:none;text-transform:none;text-indent:0"/><path id="path4294" d="m6 5c-1.108 0-2 0.892-2 2v17h40v-17c0-1.108-0.892-2-2-2z" opacity=".05" style="enable-background:new"/><path id="path4439" fill="#fff" d="m42 41c1.108 0 2-0.892 2-2v-15h-40v15c0 1.108 0.892 2 2 2z" opacity=".05" style="enable-background:new"/><path id="path4450" d="m4 38v1c0 1.108 0.892 2 2 2h36c1.108 0 2-0.892 2-2v-1c0 1.108-0.892 2-2 2h-36c-1.108 0-2-0.892-2-2z" opacity=".3"/></g></svg>