<svg xmlns="http://www.w3.org/2000/svg" xmlns:xlink="http://www.w3.org/1999/xlink" id="svg2817" width="48" height="48" version="1.0"><metadata id="metadata57"/><g id="g4465" transform="translate(0,1)"><path id="rect4203-2" fill="#0f2310" d="m44 39v-32c0-1.108-0.892-2-2-2h-36c-1.108 0-2 0.892-2 2v32c0 1.108 0.892 2 2 2h36c1.108 0 2-0.892 2-2z" opacity=".9"/><path id="path3229" fill="#6fbe72" d="m18.031 14c-1.4606 4.3434-2.9164 8.6883-4.375 13.032h-9.6562v0.99058h10.375c1.1608-3.602 2.4019-7.1799 3.5937-10.773 1.9853 6.5845 4.0076 13.158 5.9688 19.75 1.1616-2.9825 2.2685-5.9856 3.4062-8.9771h16.656v-0.991h-17.344c-0.87941 2.285-1.7268 4.5823-2.5938 6.8721-2.006-6.635-4.045-13.262-6.031-19.904z" style="color:#000;text-indent:0;block-progression:tb;text-decoration-line:none;enable-background:new;text-transform:none"/><path id="path4455" fill="#fff" d="m6 5c-1.108 0-2 0.892-2 2v1c0-1.108 0.892-2 2-2h36c1.108 0 2 0.892 2 2v-1c0-1.108-0.892-2-2-2h-36z" opacity=".2"/><path id="path4460" d="m4 38v1c0 1.108 0.892 2 2 2h36c1.108 0 2-0.892 2-2v-1c0 1.108-0.892 2-2 2h-36c-1.108 0-2-0.892-2-2z" opacity=".3"/></g></svg>